<mxfile host="65bd71144e">
    <diagram id="8TV_HbAiIy-MRLrA_s5t" name="Page-1">
        <mxGraphModel dx="1073" dy="1689" grid="1" gridSize="10" guides="1" tooltips="1" connect="1" arrows="1" fold="1" page="1" pageScale="1" pageWidth="827" pageHeight="1169" math="0" shadow="0">
            <root>
                <mxCell id="0"/>
                <mxCell id="1" parent="0"/>
                <mxCell id="2" value="" style="whiteSpace=wrap;html=1;strokeColor=#00CC00;rotation=0;" parent="1" vertex="1">
                    <mxGeometry x="290" y="290" width="520" height="600" as="geometry"/>
                </mxCell>
                <mxCell id="3" value="" style="shape=image;verticalLabelPosition=bottom;labelBackgroundColor=default;verticalAlign=top;aspect=fixed;imageAspect=0;image=data:image/png,iVBORw0KGgoAAAANSUhEUgAAAR8AAACvCAMAAADzNCq+AAAA/FBMVEX///8zMzNon2M+hj0vLy9QUFBrv0cqKip2rmNvpmB4sWIiIiJro155tGFhm1t3sGN3tl19fX10q2RinFhbmFa1zrNxulNVlE7p8OixsbGgwZ3D2MF0dHRvvE/y9/FzuFegoKBIjEVGRkYfHx+RkZFqampXnUs9PT0zgTLc3NzFxcVWmE1dXV3z8/O+vr4VFRXs7OzW1taTuZBXoEqJiYmEsIBZpkjT4tJzpm+oqKhiYmLg69+2trauyqyNtorDw8OVwI4AAACWx4yawY95rGytzaTC2ryHu3Wp0p1dtDV9wmOXzYZinVFarjxDiz16qnZTpT9kqU9BlzInfCa0YnGJAAAOeElEQVR4nO2db2ObthaHwSahvaSsiXFxTELjkP+Oa4fEwaljd9vdetc7z95uv/93uRJIgEASAju1Y/i9ylaD4dHRkY50jixJr1uD09ObdT/DJmtfVfo7d+t+is3VvirLSv9osO7n2FRBPrKsOme9dT/JZirgI8ua/LTuR9lIYT6y7Ox8WvfDbKAiPrLifK4cdVIxPsANafvX636gDRPBBxBSzqqhLK4EH+CoLw/X/UybpBQfMBuqJtSR0nxk9WjdD7VBovBRdtb9UBukig9fFR++Kj58VXz4qvjwVfHhq+LDV8WHr4oPXxUfvio+fFV8+Kr48FXx4aviw1fFh6+KD18VH74qPnxVfPiq+PBV8eGr4sNXxYevig9f6+Vzc3aysnQR217VneJalk9vUDxx8frIUTX5ZCWZj61/H/zmrojQzdFRmEq3HJ/Bw6myUzBxcXCm+t+tnS6f12f//ubNwUFDnyx9J9Bq546qOrcolW4pPk+ypsiKtlMkIebpUsPft3Re39ef3kE+B7o5spa7k9R7CFpN1Y78VLol+Hw5ddAF6F45dLMDyIZS1f0l3JD3n/f/+snns6c3zMW4+J1gq4U8VAXmPBfmA8xQib1grvzp6/M4Hf8G8kmh9wGO59f3794hPge6DggVd0Nkq8FUupvTxIOK8kHOI34v0afoPWjpRinqhv74+D7GZw8CajSKuaF0qymqmsYjwuc5dB7RVZpgGceTSqEDb+Dc5k6e/frxY5zP27cNHaqh53dD9FajPmgWn7tbh4IVvOBRdie7u3SYX6z293ON9d77Y4gH8nmD+LzVA0C53dAho9Xy8+kd9Wl0ghc84T/F4Jx5bXADR3yyYP/57cNHzAf1L2RADdDJunnc0M0pu9Vy8jlxeKA1mTPW9876mY3kXApOFv74dnz84QPJ5y02oAZUtylIJ6vVcvD5knY8iYv7n1le5FDOuDbrBjF93d09Bnw+pvns6SGhWUPEDYm0miCf688CoBm1Unc7oias9h8y3JD3328QT8x+Qv+DDQgC2tubZbuhQ0Wk1UT4DB4EQWtyaqwHoVYOE1ZVnhtq/fltdzfgQ7EfZEAIUGPGd0PirZbJhzUu0xSGL4F6ydlS9g2YMYv9x64v0n5i/Qt1MD0AtNdosN1QvlbDovLJ5eHhWB+LGCizJYEb0GOWr8ffYnxo/icE1AgA7c1+86h08rcaerQ0HyKYEJOqoIULxmwp+waUmAU6nl2a/byJ82kQBgQJTSlu6LBAq/lK8Rk8FALt+BHDXc7RISbtNvEg7b92dwk+6fkP5IOHsAjQ3izZyYq2mpzmkzmmM2/knEvS56KPAeSQIZk3v0jwofqf0IAgIMRnb05a0HWxrhW8FslnIBd/Q+dMKnwtkHpGmk/H/MC1H8wnctE6AtS4ImPWh4JNDpXg8yn/CBjpcpV83I7ZZdjPG5JPQ0+4oM5Vm7jVUXHzSfI5XAK1LK+Yj/koZD97KAzDY5hZLwsfU8T/gElPzIAAoPrr5KM4fe7oluTTBXz+EbEfAMWIAlVgPvn48J13Hj7gDfktwePjnN5IPd56AI2PeSzifzCfYJCv5+Kj9Pf3eXFmDj7Ozt01ezkIis1HVYIorcee5FP53IvZDwYEEHXy8AmWMa850yNhPpryDD8AYjw2IRYfVY2CdOYNUny63dCAMvxPnE89Bx/t8kvwiU/MWZ8gH1ULn/5QZjYHnY+inRPRFSNCo/ABhC4E7QcD6ojzUeOntJww3kqID3jD2JZVjxmBUPkoqTOrQKyYzWd6EQA6FrMfBMioi/KJ2zQUI64S4ZPaM70+p31MuaXzoewGnlCup/PpXojZj2lE5iPCRzlPrRhcn2fv79D4qCfoH1uujiO/T5SdNOeOxkfdT+ORepQnTvD5GfHxo4xs+zF9QIH5CPBRzilPJd1m7g9S+OBP2BNdr+kLj/GdGuxGFD7aiUQRZacyxQcIG5AIHwioI8qHfmzEeeb+Mo1PsPBg1fQalB4srzwkjoIJMldWyef+AhF6FOVjmHXR/rVyPhOzhqQbdpKPqqEFxNXzAYQuBPmYRsfXWvi0dcynZrRIPkq0AP0SfC6AAQn4Z9PsmB2kjeKjXT6Hl6+UTwioc7wrYj+dzgbyIReOV8sHE6rfM/cHif4V8qlvCh+lT248rJLP4z0iNK/XhfxPZ+P4OMmp8eXK+QBCYECaC/mfUPM18DFCPibks6/S8i9egs8cjtiP/PWN9fOR2miA12v+DPHml18oG+cr5fP4iM2nDnsYa39nM/wPiC6GwIT0MMLo0dIKVsjn10df9wEeYEBC/qe+HJ8i8UUUYHojIyMPaZV8/vb5zBGf+gch/1Ovi/UvWaEkRTwVi08VJczQyEogWTkfbD71+r2Q/wF8TBH7oYwt9KQDofUfdoLFS/MJzScwoMz5Tx0CMjsi62NKP77Ewcp2Els/JO/14/hE5lOvXwj5H3E+MLnrAbmOwQNr40B0/VnsUO1V86nH9Y8YH9jDRNfng7yT3onCXsEX3r8QOVR7pXz+/vue4DMX8j9A4nz8vJNPvGynHPs7SrYbWi0f0nygAYn4HziE5dgfVLRkIn1RPuw8rxfiM0/wmYv1LwBobfvLqvrAK74R5dMT4PNX0nzAGC/IR2R8fxk+cLmH44ZofKgf3xHgkzQfYEBi/ucF8xOes/MTFG3nSw4+fWqPfEi7xASf3/+XwgPGeCH/U/9OpopTyrqEpZIbHXci+VHJDVEOH7VPr4TqpadjCT72/IoCSKh/XdXIL7vpF+fzyzN5ryOhBDJVo2e9J/iAaSXTW6W2vBN8JHvxPc2nm83n6rub/K7DommjlBocwQIFetY7ycc55RaJJZJdknxAPGymCb3L8j/fR5QgccDPO2GIXh0iWuCiUYpv4nxUNavIkHzqNB9Jal4lO1mXu/5Tv+rQ08OL1BbQXjDPvZR+qgYw4hNL+OAonuxC4yNJ7vcEoX9x+td8zqlyEqsoil4g3Fan6JNYnYuSrAHEfMiED56iZBc6H6k1IgF12HzmKcdD6ky0qNLf8eSHmydiOdXaKXGbS0QnT5E8/iZme3kGQWjG4DMftrK+apAqymW0u5ZdljbYF6GtqMSNfD55f3RkcOR/E8eem50YoQ6Nj9ltMBwPqURRN6vRhaqr7z5n3ktNdIpLXGmfT3e34Jt4Dst2Y456lubTFa/yzqxUyVGd/4VPOz1PPO9nRbAMPZ86fW6jjWOzoRSfXOW5vTP2ak8s1UJMT2zainOb8jK9p6KHa/Ses1yWp2NCXbI+pTvMWd59fcRq9vyngwxYdWXa6XP21atV6IbifGa/FTil5IaeRFvoV+OodYlhQdwPFXZDZshntsec8Ywti2NXFDekFj2dKEUbhF9r+uEw5Ibeounz7HeW4/EWMB/RZQ/5yYLLaLG+gJ7ic0/FEdvMeBl5BiDU8fnMfmYZyHiKkgFrE7bnjhcDLHssUe8MB5MCq9AvrOb8qt44OJgdsGY8dlsPs0103iFKNziQ0i6XPtYKBJOqvBm/OGeDoOzN7Cvrn5sok9RANsQ7NuBQ1aC7OFnFY9197jvaOtxyWvaEOR/0RojOYmwhM9I506PembaM4yF1fbPpv+foJ5lAJMGhQG1TD/5rFWe5vX7Z7aBP6QZeoG9NEa/asme5bYGayOMY09iwHutv63uyTZCHE/wXiXENZ/4b7Rc5dPN1qOWyOxIe76Pkt7LJr53xCdBtpIXniyOhVaJtkzUiamdo8hbYN5XODY3xmJ50PKTQtJFlYtuqFnYutSznYtM/abXdSebK9atVaBWcQDTUeJqyNHsxabWs4ZbOjsLJDWchg7xgYZAhx6jlTSZjabqVfnuMp3453g4b3NAH1LQkt93UW/bwpZ5xnRoVCR2QGwpCsoUkuVZrZEvtLXRBHuwrBYaj8RACGsHrAJ/2aAGitfYWDvtN8Jp6IccBq7X8MlqAxbWkmi1Nt3DQh3xqWf3Ctim/dWDpqIxtPJSmgM/Ya6evfPWi8PGAQhy21V4Ep3Is3CbxuZCPNPHBeKMf8Lg/XGk+dlcP135s14gtQ+tGfBcx4gOi+/ZkkZH48UpF4QNL1AI+lhFVhKK6x6gPxfiAGfgWumZfPD4WXmcNhBaA8OcIPlsrDh8bLWdMJxbwSM1pMCk08WBXej4TfwoYTRxtyweG3XDp+SwgHiJM9+CHMZOy87Fh5GGQ8x5Xjyyq4pPm4/kJC8HfZecT9K/EpmDbdd3KfgI+ru+fR22vRY2rSs/HQwv2Rm00dJveOMGi9Hzi54X488ORa8U+WfGRJon4AjCKFlErPv7GRixADXobDjAqPr7GTXeh+ydrIkIGmjJWfGL/b+w12yPU28xgOKv4pBTsQaMJdNn5TIbDYQrTsBYtDpWcD0xGMJMzQwhFn4Z/lpnPVCdWNwL5fNzwzzLz8Zd/kmvuw2jNo+x8/I3nRFqvf0KhEaw1l52P38Fgqg+IT4FaY68dDF9om730fFojlPbib0Eb4UQaWVTp+UjjRXJ7B2Yy4J2cig/00YnoK5bJUPGR/O3lEf7dB6M2bFbrG+n4ouVZVrPZtMbkZLEcfIIJX/zNOfFXXGN/eXoLM1pItfzBKZ6NKsTHDs5q3sqMOlJtlK8bRhJjI71tkVQzcNvGVmZkJpSszYHA+EUWuIrFKEcpxgSnZvhryxMjCiGoauH03tLUYdguSoo3aqPgrxHT79rojO9y1fEE2ajRNJDpfix+jc/2Cpfv+G8/ZXwIp9rreU/r2AY1g74FJsqMwT2sQ+WVw2+zxu3hcJjIUg0Vls9l1viUUhau8clzTND2ynOJwRuX7BhldDwp2daQOLel5erldjyk7JoRdzT2BHUt3jkupVIrXiIYVr6Lls+VQeFEx0UTR2NYlmBCUE08miei+0pItouzx3Sjcjw0eaNgY2daOR6GrGmt5m7YjOf/3cFAiwGemFcAAAAASUVORK5CYII=;" parent="1" vertex="1">
                    <mxGeometry x="300" y="220" width="131.2" height="80" as="geometry"/>
                </mxCell>
                <mxCell id="4" value="arquitetura N-Layers" style="text;align=center;html=1;verticalAlign=middle;whiteSpace=wrap;rounded=0;fontColor=#00CC00;" parent="1" vertex="1">
                    <mxGeometry x="431.2" y="260" width="170" height="30" as="geometry"/>
                </mxCell>
                <mxCell id="5" value="porta:3333" style="rounded=0;whiteSpace=wrap;html=1;strokeColor=#82b366;fillColor=#d5e8d4;strokeWidth=4;" parent="1" vertex="1">
                    <mxGeometry x="-30" y="450" width="80" height="220" as="geometry"/>
                </mxCell>
                <mxCell id="6" value="players - controller" style="rounded=1;whiteSpace=wrap;html=1;fillColor=#d5e8d4;strokeColor=#000000;" vertex="1" parent="1">
                    <mxGeometry x="200" y="525" width="160" height="30" as="geometry"/>
                </mxCell>
                <mxCell id="12" style="edgeStyle=none;html=1;fontColor=#00CC00;" edge="1" parent="1">
                    <mxGeometry relative="1" as="geometry">
                        <mxPoint x="-160" y="610" as="targetPoint"/>
                        <mxPoint x="180" y="610" as="sourcePoint"/>
                    </mxGeometry>
                </mxCell>
                <mxCell id="7" value="clubs - controller" style="rounded=1;whiteSpace=wrap;html=1;fillColor=#d5e8d4;strokeColor=#000000;" vertex="1" parent="1">
                    <mxGeometry x="200" y="600" width="160" height="30" as="geometry"/>
                </mxCell>
                <mxCell id="11" style="edgeStyle=none;html=1;fontColor=#00CC00;" edge="1" parent="1" source="10">
                    <mxGeometry relative="1" as="geometry">
                        <mxPoint x="190" y="540" as="targetPoint"/>
                    </mxGeometry>
                </mxCell>
                <mxCell id="10" value="cliente&lt;div&gt;(ex:postman)&lt;/div&gt;" style="whiteSpace=wrap;html=1;aspect=fixed;fillColor=#d5e8d4;strokeColor=#82b366;rounded=1;" vertex="1" parent="1">
                    <mxGeometry x="-470" y="392.5" width="300" height="300" as="geometry"/>
                </mxCell>
                <mxCell id="14" value="request" style="text;html=1;align=center;verticalAlign=middle;resizable=0;points=[];autosize=1;strokeColor=none;fillColor=none;fontColor=#00CC00;" vertex="1" parent="1">
                    <mxGeometry x="120" y="510" width="60" height="30" as="geometry"/>
                </mxCell>
                <mxCell id="17" value="response" style="text;html=1;align=center;verticalAlign=middle;resizable=0;points=[];autosize=1;strokeColor=none;fillColor=none;fontColor=#00CC00;" vertex="1" parent="1">
                    <mxGeometry x="-150" y="578" width="70" height="30" as="geometry"/>
                </mxCell>
                <mxCell id="19" value="JSON" style="text;html=1;align=center;verticalAlign=middle;resizable=0;points=[];autosize=1;strokeColor=#d6b656;fillColor=#fff2cc;rounded=1;" vertex="1" parent="1">
                    <mxGeometry x="65" y="620" width="60" height="30" as="geometry"/>
                </mxCell>
                <mxCell id="41" style="edgeStyle=none;html=1;fontFamily=Helvetica;fontSize=12;fontColor=default;" edge="1" parent="1" source="22" target="31">
                    <mxGeometry relative="1" as="geometry"/>
                </mxCell>
                <mxCell id="22" value="" style="rounded=0;whiteSpace=wrap;html=1;fillColor=#fff2cc;strokeColor=#d6b656;" vertex="1" parent="1">
                    <mxGeometry x="411.2" y="422.5" width="160" height="285" as="geometry"/>
                </mxCell>
                <mxCell id="23" value="SERVICES" style="rounded=1;whiteSpace=wrap;html=1;fillColor=#d5e8d4;strokeColor=#82b366;" vertex="1" parent="1">
                    <mxGeometry x="421.2" y="402.5" width="100" height="30" as="geometry"/>
                </mxCell>
                <mxCell id="34" style="edgeStyle=none;html=1;entryX=1;entryY=0.25;entryDx=0;entryDy=0;fontFamily=Helvetica;fontSize=12;fontColor=default;" edge="1" parent="1" source="24" target="6">
                    <mxGeometry relative="1" as="geometry"/>
                </mxCell>
                <mxCell id="24" value="get api/players/{id}" style="rounded=1;whiteSpace=wrap;html=1;fillColor=#d5e8d4;strokeColor=#000000;" vertex="1" parent="1">
                    <mxGeometry x="416.2" y="442.5" width="150" height="30" as="geometry"/>
                </mxCell>
                <mxCell id="36" style="edgeStyle=none;html=1;fontFamily=Helvetica;fontSize=12;fontColor=default;" edge="1" parent="1" source="25" target="6">
                    <mxGeometry relative="1" as="geometry"/>
                </mxCell>
                <mxCell id="25" value="post api/players" style="rounded=1;whiteSpace=wrap;html=1;fillColor=#d5e8d4;strokeColor=#000000;" vertex="1" parent="1">
                    <mxGeometry x="416.2" y="520.5" width="150" height="30" as="geometry"/>
                </mxCell>
                <mxCell id="37" style="edgeStyle=none;html=1;fontFamily=Helvetica;fontSize=12;fontColor=default;" edge="1" parent="1" source="26" target="6">
                    <mxGeometry relative="1" as="geometry"/>
                </mxCell>
                <mxCell id="26" value="delete api/players/{id}" style="rounded=1;whiteSpace=wrap;html=1;fillColor=#d5e8d4;strokeColor=#000000;" vertex="1" parent="1">
                    <mxGeometry x="416.2" y="560.5" width="150" height="30" as="geometry"/>
                </mxCell>
                <mxCell id="38" style="edgeStyle=none;html=1;fontFamily=Helvetica;fontSize=12;fontColor=default;" edge="1" parent="1" source="27" target="6">
                    <mxGeometry relative="1" as="geometry"/>
                </mxCell>
                <mxCell id="27" value="patch api/players/{id}" style="rounded=1;whiteSpace=wrap;html=1;fillColor=#d5e8d4;strokeColor=#000000;" vertex="1" parent="1">
                    <mxGeometry x="416.2" y="600.5" width="150" height="30" as="geometry"/>
                </mxCell>
                <mxCell id="35" style="edgeStyle=none;html=1;fontFamily=Helvetica;fontSize=12;fontColor=default;" edge="1" parent="1" source="28" target="6">
                    <mxGeometry relative="1" as="geometry"/>
                </mxCell>
                <mxCell id="28" value="get api/players/list" style="rounded=1;whiteSpace=wrap;html=1;fillColor=#d5e8d4;strokeColor=#000000;" vertex="1" parent="1">
                    <mxGeometry x="416.2" y="482.5" width="150" height="30" as="geometry"/>
                </mxCell>
                <mxCell id="39" style="edgeStyle=none;html=1;entryX=1;entryY=0.5;entryDx=0;entryDy=0;fontFamily=Helvetica;fontSize=12;fontColor=default;" edge="1" parent="1" source="30" target="7">
                    <mxGeometry relative="1" as="geometry"/>
                </mxCell>
                <mxCell id="30" value="get api/clubs/list" style="rounded=1;whiteSpace=wrap;html=1;fillColor=#d5e8d4;strokeColor=#000000;" vertex="1" parent="1">
                    <mxGeometry x="416.2" y="667.5" width="150" height="30" as="geometry"/>
                </mxCell>
                <mxCell id="31" value="" style="rounded=0;whiteSpace=wrap;html=1;fillColor=#dae8fc;strokeColor=#6c8ebf;" vertex="1" parent="1">
                    <mxGeometry x="610" y="422.5" width="160" height="285" as="geometry"/>
                </mxCell>
                <mxCell id="32" value="REPOSITORIES" style="rounded=1;whiteSpace=wrap;html=1;fillColor=#fff2cc;strokeColor=#d6b656;" vertex="1" parent="1">
                    <mxGeometry x="620" y="402.5" width="100" height="30" as="geometry"/>
                </mxCell>
                <mxCell id="42" value="getPlayerById()" style="rounded=1;whiteSpace=wrap;html=1;fillColor=#d5e8d4;strokeColor=#000000;" vertex="1" parent="1">
                    <mxGeometry x="615" y="442.5" width="150" height="30" as="geometry"/>
                </mxCell>
                <mxCell id="44" value="getListPlayers()" style="rounded=1;whiteSpace=wrap;html=1;fillColor=#d5e8d4;strokeColor=#000000;" vertex="1" parent="1">
                    <mxGeometry x="615" y="482.5" width="150" height="30" as="geometry"/>
                </mxCell>
                <mxCell id="45" value="insertPlayer()" style="rounded=1;whiteSpace=wrap;html=1;fillColor=#d5e8d4;strokeColor=#000000;" vertex="1" parent="1">
                    <mxGeometry x="615" y="520.5" width="150" height="30" as="geometry"/>
                </mxCell>
                <mxCell id="46" value="deletePlayerById()" style="rounded=1;whiteSpace=wrap;html=1;fillColor=#d5e8d4;strokeColor=#000000;" vertex="1" parent="1">
                    <mxGeometry x="615" y="560.5" width="150" height="30" as="geometry"/>
                </mxCell>
                <mxCell id="47" value="updatePlayerById()" style="rounded=1;whiteSpace=wrap;html=1;fillColor=#d5e8d4;strokeColor=#000000;" vertex="1" parent="1">
                    <mxGeometry x="615" y="600.5" width="150" height="30" as="geometry"/>
                </mxCell>
                <mxCell id="48" value="getListClubs()" style="rounded=1;whiteSpace=wrap;html=1;fillColor=#d5e8d4;strokeColor=#000000;" vertex="1" parent="1">
                    <mxGeometry x="615" y="667.5" width="150" height="30" as="geometry"/>
                </mxCell>
                <mxCell id="49" value="server.ts" style="rounded=1;whiteSpace=wrap;html=1;fillColor=#dae8fc;strokeColor=#6c8ebf;fontStyle=1;strokeWidth=3;" vertex="1" parent="1">
                    <mxGeometry x="300" y="320" width="100" height="30" as="geometry"/>
                </mxCell>
                <mxCell id="50" value="app.ts" style="rounded=1;whiteSpace=wrap;html=1;fillColor=#dae8fc;strokeColor=#6c8ebf;fontStyle=1;strokeWidth=3;" vertex="1" parent="1">
                    <mxGeometry x="411.2" y="320" width="100" height="30" as="geometry"/>
                </mxCell>
                <mxCell id="51" value="routes.ts" style="rounded=1;whiteSpace=wrap;html=1;fillColor=#dae8fc;strokeColor=#6c8ebf;fontStyle=1;strokeWidth=3;" vertex="1" parent="1">
                    <mxGeometry x="300" y="360" width="100" height="30" as="geometry"/>
                </mxCell>
                <mxCell id="54" value="" style="rounded=0;whiteSpace=wrap;html=1;fillColor=#f8cecc;strokeColor=#b85450;" vertex="1" parent="1">
                    <mxGeometry x="411.2" y="740" width="160" height="120" as="geometry"/>
                </mxCell>
                <mxCell id="55" value="Models" style="rounded=1;whiteSpace=wrap;html=1;fillColor=#dae8fc;strokeColor=#6c8ebf;" vertex="1" parent="1">
                    <mxGeometry x="416.2" y="720" width="100" height="30" as="geometry"/>
                </mxCell>
                <mxCell id="56" value="playerModel" style="rounded=1;whiteSpace=wrap;html=1;fillColor=#d5e8d4;strokeColor=#000000;" vertex="1" parent="1">
                    <mxGeometry x="416.2" y="760" width="150" height="30" as="geometry"/>
                </mxCell>
                <mxCell id="57" value="clubModel" style="rounded=1;whiteSpace=wrap;html=1;fillColor=#d5e8d4;strokeColor=#000000;" vertex="1" parent="1">
                    <mxGeometry x="416.2" y="800" width="150" height="30" as="geometry"/>
                </mxCell>
                <mxCell id="58" value="OU" style="rounded=0;whiteSpace=wrap;html=1;strokeColor=#6c8ebf;align=center;verticalAlign=middle;fontFamily=Helvetica;fontSize=12;fillColor=#dae8fc;" vertex="1" parent="1">
                    <mxGeometry x="950" y="416.75" width="230" height="317.5" as="geometry"/>
                </mxCell>
                <mxCell id="59" value="DATA" style="rounded=1;whiteSpace=wrap;html=1;fillColor=#fff2cc;strokeColor=#d6b656;" vertex="1" parent="1">
                    <mxGeometry x="955" y="402.5" width="100" height="30" as="geometry"/>
                </mxCell>
                <mxCell id="60" value="JSON" style="rounded=1;whiteSpace=wrap;html=1;fillColor=#fff2cc;strokeColor=#d6b656;" vertex="1" parent="1">
                    <mxGeometry x="960" y="560.5" width="90" height="30" as="geometry"/>
                </mxCell>
                <mxCell id="61" value="MYSQL" style="rounded=1;whiteSpace=wrap;html=1;fillColor=#fff2cc;strokeColor=#d6b656;" vertex="1" parent="1">
                    <mxGeometry x="1080" y="560.5" width="90" height="30" as="geometry"/>
                </mxCell>
                <mxCell id="62" style="edgeStyle=none;html=1;entryX=0;entryY=0.539;entryDx=0;entryDy=0;entryPerimeter=0;fontFamily=Helvetica;fontSize=12;fontColor=default;" edge="1" parent="1" source="2" target="58">
                    <mxGeometry relative="1" as="geometry"/>
                </mxCell>
            </root>
        </mxGraphModel>
    </diagram>
</mxfile>